  0
SECTION
  2
HEADER
  9
$INSBASE
 10
0.0000
 20
0.0000
  9
$EXTMIN
 10
-27.303122292025741
 20
-27.303122292025719
  9
$EXTMAX
 10
27.303122292025812
 20
27.303122292025726
  9
$LIMMIN
 10
-27.303122292025741
 20
-27.303122292025719
  9
$LIMMAX
 10
27.303122292025812
 20
27.303122292025726
  9
$TEXTSTYLE
  7
STANDARD
  9
$CLAYER
  8
default
  0
ENDSEC
  0
SECTION
  2
TABLES
  0
TABLE
  2
LTYPE
 70
4948253
  0
LTYPE
  2
CONTINUOUS
 70
    64
  3
Solid line
 72
    65
 73
     0
 40
0.0
  0
ENDTAB
  0
TABLE
  2
LAYER
 70
     5
  0
LAYER
  2
default
 70
    64
 62
     7
  6
CONTINUOUS
  0
ENDTAB
  0
TABLE
  2
STYLE
 70
     1
  0
STYLE
  2
STANDARD
 70
     0
 40
0.0
 41
1.0
 50
0.0
 71
     0
 42
0.2
  3
txt
  4

  0
ENDTAB
  0
TABLE
  2
VIEW
 70
     0
  0
ENDTAB
  0
ENDSEC
  0
SECTION
  2
BLOCKS
  0
ENDSEC
  0
SECTION
  2
ENTITIES
  0
LINE
  8
default
 10
18.300000000000004
 20
3.2000000000000002
 30
0.0
 11
14.02
 21
3.2000000000000002
 31
0.0
  0
LINE
  8
default
 10
11.921281292110208
 20
14.248264889255228
 30
0.0
 11
9.7812812921102044
 21
10.541676161057827
 31
0.0
  0
LINE
  8
default
 10
11.894361858506663
 20
5.2957110928469175
 30
0.0
 11
12.807907316149263
 21
5.7024477359227177
 31
0.0
  0
LINE
  8
default
 10
10.533401266761816
 20
7.6529639848480002
 30
0.0
 11
11.342418261136762
 21
8.2407492371404736
 31
0.0
  0
LINE
  8
default
 10
12.807907316149263
 20
5.7024477359227177
 30
0.0
 11
11.342418261136762
 21
8.2407492371404736
 31
0.0
  0
LINE
  8
default
 10
14.02
 20
3.2000000000000002
 30
0.0
 11
12.807907316149263
 21
5.7024477359227177
 31
0.0
  0
LINE
  8
default
 10
11.342418261136762
 20
8.2407492371404736
 30
0.0
 11
9.7812812921102044
 21
10.541676161057827
 31
0.0
  0
LINE
  8
default
 10
1.36096059174485
 20
12.948675077694917
 30
0.0
 11
1.4654890550125046
 21
13.94319697306319
 31
0.0
  0
LINE
  8
default
 10
-10.533401266761812
 20
7.652963984848002
 30
0.0
 11
-11.342418261136759
 21
8.2407492371404754
 31
0.0
  0
LINE
  8
default
 10
-11.894361858506667
 20
-5.2957110928469104
 30
0.0
 11
-12.807907316149267
 21
-5.7024477359227106
 31
0.0
  0
LINE
  8
default
 10
-1.3609605917448553
 20
-12.948675077694917
 30
0.0
 11
-1.465489055012509
 21
-13.943196973063191
 31
0.0
  0
LINE
  8
default
 10
10.533401266761807
 20
-7.6529639848480082
 30
0.0
 11
11.342418261136753
 21
-8.2407492371404807
 31
0.0
  0
LINE
  8
default
 10
4.2387187078897979
 20
13.741676161057828
 30
0.0
 11
1.4654890550125046
 21
13.94319697306319
 31
0.0
  0
LINE
  8
default
 10
-9.7812812921102008
 20
10.541676161057831
 30
0.0
 11
-11.342418261136759
 21
8.2407492371404754
 31
0.0
  0
LINE
  8
default
 10
-14.020000000000001
 20
-3.1999999999999922
 30
0.0
 11
-12.807907316149267
 21
-5.7024477359227106
 31
0.0
  0
LINE
  8
default
 10
-4.2387187078898032
 20
-13.741676161057827
 30
0.0
 11
-1.465489055012509
 21
-13.943196973063191
 31
0.0
  0
LINE
  8
default
 10
9.7812812921101955
 20
-10.541676161057836
 30
0.0
 11
11.342418261136753
 21
-8.2407492371404807
 31
0.0
  0
LINE
  8
default
 10
6.3787187078898002
 20
17.448264889255231
 30
0.0
 11
4.2387187078897979
 21
13.741676161057828
 31
0.0
  0
LINE
  8
default
 10
-11.921281292110203
 20
14.248264889255232
 30
0.0
 11
-9.7812812921102008
 21
10.541676161057831
 31
0.0
  0
LINE
  8
default
 10
-18.300000000000008
 20
-3.19999999999999
 30
0.0
 11
-14.020000000000001
 21
-3.1999999999999922
 31
0.0
  0
LINE
  8
default
 10
-6.3787187078898082
 20
-17.448264889255228
 30
0.0
 11
-4.2387187078898032
 21
-13.741676161057827
 31
0.0
  0
LINE
  8
default
 10
11.921281292110194
 20
-14.248264889255241
 30
0.0
 11
9.7812812921101955
 21
-10.541676161057836
 31
0.0
  0
LINE
  8
default
 10
-6.3787187078897931
 20
17.448264889255235
 30
0.0
 11
-4.2387187078897925
 21
13.74167616105783
 31
0.0
  0
LINE
  8
default
 10
-18.300000000000001
 20
3.2000000000000082
 30
0.0
 11
-14.019999999999998
 21
3.2000000000000046
 31
0.0
  0
LINE
  8
default
 10
-11.921281292110217
 20
-14.248264889255221
 30
0.0
 11
-9.7812812921102097
 21
-10.541676161057822
 31
0.0
  0
LINE
  8
default
 10
6.3787187078897851
 20
-17.448264889255235
 30
0.0
 11
4.2387187078897872
 21
-13.74167616105783
 31
0.0
  0
LINE
  8
default
 10
18.300000000000001
 20
-3.2000000000000188
 30
0.0
 11
14.019999999999996
 21
-3.2000000000000135
 31
0.0
  0
LINE
  8
default
 10
-1.465489055012501
 20
13.943196973063191
 30
0.0
 11
-4.2387187078897925
 21
13.74167616105783
 31
0.0
  0
LINE
  8
default
 10
-12.807907316149262
 20
5.7024477359227213
 30
0.0
 11
-14.019999999999998
 21
3.2000000000000046
 31
0.0
  0
LINE
  8
default
 10
-11.342418261136768
 20
-8.2407492371404665
 30
0.0
 11
-9.7812812921102097
 21
-10.541676161057822
 31
0.0
  0
LINE
  8
default
 10
1.4654890550124948
 20
-13.943196973063193
 30
0.0
 11
4.2387187078897872
 21
-13.74167616105783
 31
0.0
  0
LINE
  8
default
 10
12.80790731614926
 20
-5.7024477359227292
 30
0.0
 11
14.019999999999996
 21
-3.2000000000000135
 31
0.0
  0
LINE
  8
default
 10
-1.3609605917448464
 20
12.948675077694919
 30
0.0
 11
-1.465489055012501
 21
13.943196973063191
 31
0.0
  0
LINE
  8
default
 10
-11.894361858506661
 20
5.295711092846922
 30
0.0
 11
-12.807907316149262
 21
5.7024477359227213
 31
0.0
  0
LINE
  8
default
 10
-10.533401266761819
 20
-7.652963984847994
 30
0.0
 11
-11.342418261136768
 21
-8.2407492371404665
 31
0.0
  0
LINE
  8
default
 10
1.360960591744842
 20
-12.94867507769492
 30
0.0
 11
1.4654890550124948
 21
-13.943196973063193
 31
0.0
  0
LINE
  8
default
 10
11.89436185850666
 20
-5.2957110928469291
 30
0.0
 11
12.80790731614926
 21
-5.7024477359227292
 31
0.0
  0
LINE
  8
default
 10
1.4654890550125046
 20
13.94319697306319
 30
0.0
 11
-1.465489055012501
 21
13.943196973063191
 31
0.0
  0
LINE
  8
default
 10
-11.342418261136759
 20
8.2407492371404754
 30
0.0
 11
-12.807907316149262
 21
5.7024477359227213
 31
0.0
  0
LINE
  8
default
 10
-12.807907316149267
 20
-5.7024477359227106
 30
0.0
 11
-11.342418261136768
 21
-8.2407492371404665
 31
0.0
  0
LINE
  8
default
 10
-1.465489055012509
 20
-13.943196973063191
 30
0.0
 11
1.4654890550124948
 21
-13.943196973063193
 31
0.0
  0
LINE
  8
default
 10
11.342418261136753
 20
-8.2407492371404807
 30
0.0
 11
12.80790731614926
 21
-5.7024477359227292
 31
0.0
  0
LINE
  8
default
 10
9.5435999497045145
 20
-5.5099999999999989
 30
0.0
 11
-9.5435999497045145
 21
-5.5099999999999989
 31
0.0
  0
LINE
  8
default
 10
9.5435999497045145
 20
5.5099999999999989
 30
0.0
 11
-9.5435999497045145
 21
5.5099999999999989
 31
0.0
  0
ARC
  8
default
 10
0
 20
0
 30
0
 40
24.700000000000003
 50
0
 51
59.999999999999993
  0
ARC
  8
default
 10
5.5425625842204091
 20
3.2000000000000011
 30
0
 40
12.757437415779595
 50
360
 51
59.999999999999993
  0
ARC
  8
default
 10
-1.7763568394002505e-015
 20
-1.7763568394002505e-015
 30
0
 40
13.020000000000001
 50
7.8170314751791492e-015
 51
24
  0
ARC
  8
default
 10
1.7763568394002505e-015
 20
-1.7763568394002505e-015
 30
0
 40
13.02
 50
36.000000000000014
 51
60.000000000000007
  0
ARC
  8
default
 10
0
 20
0
 30
0
 40
25.500000000000004
 50
0
 51
59.999999999999993
  0
ARC
  8
default
 10
8.8817841970012523e-016
 20
-3.5527136788005009e-015
 30
0
 40
13.020000000000003
 50
60.000000000000007
 51
84
  0
ARC
  8
default
 10
8.8817841970012523e-016
 20
0
 30
0
 40
13.020000000000001
 50
119.99999999999999
 51
144
  0
ARC
  8
default
 10
-1.7763568394002505e-015
 20
7.1519349698672948e-016
 30
0
 40
13.019999999999996
 50
179.99999999999997
 51
203.99999999999994
  0
ARC
  8
default
 10
-2.6645352591003757e-015
 20
3.5527136788005009e-015
 30
0
 40
13.020000000000001
 50
240
 51
264
  0
ARC
  8
default
 10
-6.2172489379008766e-015
 20
0
 30
0
 40
13.020000000000001
 50
300
 51
324
  0
ARC
  8
default
 10
8.8817841970012523e-016
 20
6.4000000000000039
 30
0
 40
12.757437415779595
 50
59.999999999999993
 51
119.99999999999999
  0
ARC
  8
default
 10
-5.5425625842204083
 20
3.2000000000000028
 30
0
 40
12.757437415779592
 50
119.99999999999999
 51
179.99999999999997
  0
ARC
  8
default
 10
-5.5425625842204127
 20
-3.1999999999999962
 30
0
 40
12.757437415779595
 50
179.99999999999997
 51
239.99999999999994
  0
ARC
  8
default
 10
-5.3290705182007514e-015
 20
-6.4000000000000021
 30
0
 40
12.757437415779595
 50
239.99999999999994
 51
300
  0
ARC
  8
default
 10
5.5425625842204074
 20
-3.2000000000000064
 30
0
 40
12.757437415779595
 50
299.99999999999994
 51
359.99999999999994
  0
ARC
  8
default
 10
2.6645352591003757e-015
 20
0
 30
0
 40
13.020000000000001
 50
96
 51
119.99999999999999
  0
ARC
  8
default
 10
-5.3290705182007514e-015
 20
0
 30
0
 40
13.019999999999994
 50
156
 51
179.99999999999997
  0
ARC
  8
default
 10
3.5527136788005009e-015
 20
2.6645352591003757e-015
 30
0
 40
13.020000000000003
 50
215.99999999999997
 51
239.99999999999994
  0
ARC
  8
default
 10
0
 20
-8.8817841970012523e-015
 30
0
 40
13.019999999999991
 50
276
 51
300
  0
ARC
  8
default
 10
-3.0198066269804258e-014
 20
4.4408920985006262e-015
 30
0
 40
13.020000000000028
 50
336
 51
360
  0
ARC
  8
default
 10
1.7763568394002505e-015
 20
-3.5527136788005009e-015
 30
0
 40
24.700000000000003
 50
59.999999999999993
 51
119.99999999999999
  0
ARC
  8
default
 10
0
 20
0
 30
0
 40
24.699999999999999
 50
119.99999999999999
 51
179.99999999999997
  0
ARC
  8
default
 10
-3.5527136788005009e-015
 20
-1.7763568394002505e-015
 30
0
 40
24.699999999999999
 50
179.99999999999997
 51
239.99999999999994
  0
ARC
  8
default
 10
0
 20
3.5527136788005009e-015
 30
0
 40
24.700000000000006
 50
239.99999999999994
 51
299.99999999999994
  0
ARC
  8
default
 10
-1.7763568394002505e-014
 20
1.0658141036401503e-014
 30
0
 40
24.700000000000021
 50
300
 51
360
  0
ARC
  8
default
 10
0
 20
0
 30
0
 40
25.500000000000004
 50
59.999999999999993
 51
119.99999999999999
  0
ARC
  8
default
 10
0
 20
0
 30
0
 40
25.500000000000004
 50
119.99999999999999
 51
179.99999999999997
  0
ARC
  8
default
 10
-3.5527136788005009e-015
 20
-1.7763568394002505e-015
 30
0
 40
25.500000000000004
 50
179.99999999999997
 51
239.99999999999994
  0
ARC
  8
default
 10
0
 20
7.1054273576010019e-015
 30
0
 40
25.500000000000007
 50
239.99999999999994
 51
299.99999999999994
  0
ARC
  8
default
 10
-1.9539925233402755e-014
 20
1.0658141036401503e-014
 30
0
 40
25.500000000000021
 50
300
 51
360
  0
ARC
  8
default
 10
0
 20
0
 30
0
 40
11.02
 50
330
 51
29.999999999999993
  0
ARC
  8
default
 10
0
 20
0
 30
0
 40
11.02
 50
150.00000000000003
 51
209.99999999999997
  0
ENDSEC
  0
EOF
